<svg width="22" height="23" viewBox="0 0 22 23" fill="none" xmlns="http://www.w3.org/2000/svg">
<path d="M4.80391 2.69461C7.31328 4.57234 10.0117 8.38797 11 10.4376C11.9883 8.39227 14.6867 4.57664 17.1961 2.69461C19.0051 1.3368 21.9355 0.288358 21.9355 3.63133C21.9355 4.29734 21.5531 9.23875 21.3297 10.0423C20.5477 12.8266 17.7031 13.5399 15.1723 13.1059C19.5938 13.8579 20.7195 16.3501 18.2875 18.8423C13.6727 23.5774 11.6574 17.6563 11.1418 16.1395C11.0687 15.929 11.0301 15.8044 11 15.8044C10.9699 15.8044 10.9312 15.9333 10.8582 16.1395C10.3426 17.6563 8.32305 23.5774 3.7125 18.8423C1.28477 16.3501 2.40625 13.8579 6.82773 13.1059C4.29687 13.5399 1.45234 12.8266 0.674609 10.038C0.446875 9.23445 0.0644531 4.29305 0.0644531 3.62703C0.0644531 0.284061 2.99492 1.3325 4.80391 2.69031V2.69461Z" fill="white"/>
</svg>
