<svg width="18" height="19" viewBox="0 0 18 19" fill="none" xmlns="http://www.w3.org/2000/svg">
<path d="M16.25 0.771973C16.9141 0.771973 17.5 1.35791 17.5 2.06104V17.022C17.5 17.7251 16.9141 18.272 16.25 18.272H1.21094C0.546875 18.272 0 17.7251 0 17.022V2.06104C0 1.35791 0.546875 0.771973 1.21094 0.771973H16.25ZM5.27344 15.772V7.45166H2.69531V15.772H5.27344ZM3.98438 6.27979C4.80469 6.27979 5.46875 5.61572 5.46875 4.79541C5.46875 3.9751 4.80469 3.27197 3.98438 3.27197C3.125 3.27197 2.46094 3.9751 2.46094 4.79541C2.46094 5.61572 3.125 6.27979 3.98438 6.27979ZM15 15.772V11.2017C15 8.9751 14.4922 7.21729 11.875 7.21729C10.625 7.21729 9.76562 7.92041 9.41406 8.58447H9.375V7.45166H6.91406V15.772H9.49219V11.6704C9.49219 10.5767 9.6875 9.52197 11.0547 9.52197C12.3828 9.52197 12.3828 10.772 12.3828 11.7095V15.772H15Z" fill="white"/>
</svg>
